<svg xmlns="http://www.w3.org/2000/svg" viewBox="0 0 288.42 292.62"><defs><style>.cls-1{fill:#2d2c5d;}.cls-2{fill:#fff;}.cls-3{fill:#67b8ec;}.cls-4{fill:#bbbdbe;}</style></defs><title>logo-vert</title><g id="Camada_2" data-name="Camada 2"><g id="Camada_1-2" data-name="Camada 1"><path class="cls-1" d="M46.16,260.64l5.68,15.29a46,46,0,0,1-21.07,5.16C12.39,281.09,0,270.45,0,254.55S12.39,228,30.77,228A50.92,50.92,0,0,1,51,232.56l-5.58,15.9A38.18,38.18,0,0,0,30.77,245c-12.18,0-13,5.88-13,9.6s.83,9.6,13,9.6C37.69,264.15,42.34,262.19,46.16,260.64Z"/><path class="cls-1" d="M109.87,260.44l-35.73.1C75.38,263.43,78.38,266,86,266a77,77,0,0,0,18.79-2.27l2.38,14.35c-5.37,2-13.22,3-21.38,3-17.76,0-30.15-10.64-30.15-26.54S67.43,228,85.19,228c13.22,0,25.1,8.57,25.1,24.68C110.29,256.72,109.87,260.44,109.87,260.44ZM74.35,248.25l18.18-.41c0-1.76-.83-6.09-7.13-6.09C78.79,241.75,75.8,244.74,74.35,248.25Z"/><path class="cls-1" d="M118,229.46l12.29-.83,1.86,3.2c4.44-2,9.91-3.82,15.08-3.82,17.76,0,28.6,10.64,28.6,26.54s-11.05,26.54-28.81,26.54A34.6,34.6,0,0,1,135.69,279v13.6H118Zm40.17,25.09c0-3.72-1.86-9.6-12.08-9.6a41.39,41.39,0,0,0-10.43,1.65v16.11a39.38,39.38,0,0,0,10.43,1.44C156.34,264.15,158.2,258.27,158.2,254.55Z"/><path class="cls-1" d="M183.71,229.46l12.6-.83,1.75,3.2c4.75-2,10.64-3.82,15.8-3.82a49.68,49.68,0,0,1,12.29,1.34l-4,16.63a36.59,36.59,0,0,0-9.39-1,51.55,51.55,0,0,0-11.47,1.75v34H183.71Z"/><path class="cls-1" d="M227.08,254.55c0-15.9,12.29-26.54,30.67-26.54s30.67,10.64,30.67,26.54-12.29,26.54-30.67,26.54S227.08,270.45,227.08,254.55Zm17.87,0c0,2.79.2,9.71,12.8,9.71s12.91-6.92,12.91-9.71-.31-9.71-12.91-9.71S245,251.76,245,254.55Z"/><circle class="cls-1" cx="144.25" cy="107.82" r="97.93"/><path class="cls-2" d="M222.16,33.12V0l-5.93,0h-.33A139.83,139.83,0,0,0,83.64,184.74a97.92,97.92,0,0,0,135.56-13.9h-3.32a31.2,31.2,0,0,1,0-62.39h6.28V78.4H255V33.12Z"/><path class="cls-3" d="M215.19,39.05A100.62,100.62,0,0,0,140,205.65c1.41.06,2.83.1,4.26.1a97.76,97.76,0,0,0,38.46-7.84A67.11,67.11,0,0,1,216,72.53l39,0V39C255.21,38.82,215.19,39.05,215.19,39.05Z"/><path class="cls-4" d="M154.92,139.66a61.11,61.11,0,0,0,34.54,55.05,98.12,98.12,0,0,0,24.29-17.9A37.22,37.22,0,0,1,216,102.44h.11V78.56H216A61.11,61.11,0,0,0,154.92,139.66Z"/><path class="cls-4" d="M215.9,6A133.69,133.69,0,0,0,92.46,190.94a97.36,97.36,0,0,0,39.22,14A106.59,106.59,0,0,1,216,33h.18V6Z"/></g></g></svg>