<svg xmlns="http://www.w3.org/2000/svg" viewBox="0 0 457.5 177.47"><defs><style>.cls-1{fill:#2d2c5d;}.cls-2{fill:#fff;}.cls-3{fill:#67b8ec;}.cls-4{fill:#bbbdbe;}</style></defs><title>logo</title><g id="Camada_2" data-name="Camada 2"><g id="Camada_1-2" data-name="Camada 1"><path class="cls-1" d="M241.77,106.9l5.06,13.6a40.75,40.75,0,0,1-18.76,4.6c-16.37,0-27.4-9.47-27.4-23.63s11-23.63,27.4-23.63a45.19,45.19,0,0,1,18,4l-5,14.16a34,34,0,0,0-13.06-3.13c-10.85,0-11.59,5.24-11.59,8.55s.74,8.55,11.59,8.55A33.44,33.44,0,0,0,241.77,106.9Z"/><path class="cls-1" d="M298.51,106.71l-31.82.09c1.11,2.58,3.77,4.88,10.58,4.88a68.29,68.29,0,0,0,16.73-2l2.12,12.79c-4.78,1.74-11.77,2.66-19,2.66-15.81,0-26.85-9.47-26.85-23.63s10.49-23.63,26.3-23.63c11.77,0,22.35,7.63,22.35,22C298.88,103.4,298.51,106.71,298.51,106.71ZM266.88,95.86l16.18-.37c0-1.56-.73-5.42-6.34-5.42C270.83,90.07,268.17,92.74,266.88,95.86Z"/><path class="cls-1" d="M305.78,79.13l10.94-.74,1.65,2.85c4-1.75,8.83-3.4,13.43-3.4,15.81,0,25.47,9.47,25.47,23.63s-9.84,23.63-25.66,23.63a30.65,30.65,0,0,1-10.11-1.84v12.11H305.78Zm35.76,22.34c0-3.31-1.65-8.55-10.75-8.55a36.74,36.74,0,0,0-9.29,1.47v14.34a34.66,34.66,0,0,0,9.29,1.29C339.89,110,341.54,104.78,341.54,101.47Z"/><path class="cls-1" d="M364.26,79.13l11.22-.74L377,81.24c4.23-1.75,9.47-3.4,14.07-3.4A44.34,44.34,0,0,1,402.05,79l-3.59,14.81a32.43,32.43,0,0,0-8.36-.92,45.72,45.72,0,0,0-10.21,1.56v30.25H364.26Z"/><path class="cls-1" d="M402.88,101.47c0-14.16,10.94-23.63,27.31-23.63s27.31,9.47,27.31,23.63-10.94,23.63-27.31,23.63S402.88,115.63,402.88,101.47Zm15.91,0c0,2.48.18,8.64,11.4,8.64s11.49-6.16,11.49-8.64-.27-8.64-11.49-8.64S418.79,99,418.79,101.47Z"/><circle class="cls-1" cx="84.47" cy="93" r="84.47"/><path class="cls-2" d="M151.67,28.57V0l-5.12,0h-.28A120.61,120.61,0,0,0,32.19,159.35a84.47,84.47,0,0,0,116.93-12h-2.87a26.91,26.91,0,0,1,0-53.82h5.42V67.62H180V28.57Z"/><path class="cls-3" d="M145.66,33.68A86.79,86.79,0,0,0,80.79,177.39c1.22.05,2.45.08,3.68.08a84.21,84.21,0,0,0,33.17-6.76A57.89,57.89,0,0,1,146.38,62.56H180V33.64C180.18,33.48,145.66,33.68,145.66,33.68Z"/><path class="cls-4" d="M93.67,120.47A52.72,52.72,0,0,0,123.46,168a84.69,84.69,0,0,0,21-15.44,32.1,32.1,0,0,1,2-64.15h.09V67.76h-.09A52.71,52.71,0,0,0,93.67,120.47Z"/><path class="cls-4" d="M146.27,5.2A115.33,115.33,0,0,0,39.79,164.69a83.91,83.91,0,0,0,33.84,12.09,91.94,91.94,0,0,1,72.69-148.3h.15V5.2Z"/></g></g></svg>