<svg xmlns="http://www.w3.org/2000/svg" viewBox="0 0 457.5 172.27"><defs><style>.cls-1{fill:#fff;}</style></defs><title>logo-white_2</title><g id="Camada_2" data-name="Camada 2"><g id="Camada_1-2" data-name="Camada 1"><path class="cls-1" d="M241.77,101.7l5,13.61a40.83,40.83,0,0,1-18.75,4.6c-16.37,0-27.41-9.48-27.41-23.64s11-23.63,27.41-23.63a45.44,45.44,0,0,1,18,4l-5,14.16a34,34,0,0,0-13.05-3.13c-10.86,0-11.59,5.24-11.59,8.55s.73,8.56,11.59,8.56C234.23,104.83,238.36,103.08,241.77,101.7Z"/><path class="cls-1" d="M298.5,101.52l-31.81.09c1.1,2.57,3.77,4.87,10.57,4.87a68.92,68.92,0,0,0,16.74-2l2.11,12.78c-4.78,1.75-11.77,2.67-19,2.67-15.82,0-26.85-9.48-26.85-23.64s10.48-23.63,26.3-23.63c11.77,0,22.34,7.63,22.34,22C298.87,98.2,298.5,101.52,298.5,101.52ZM266.87,90.66l16.19-.36c0-1.57-.74-5.43-6.35-5.43C270.83,84.87,268.16,87.54,266.87,90.66Z"/><path class="cls-1" d="M305.77,73.93l10.94-.74L318.37,76c3.95-1.74,8.82-3.4,13.42-3.4,15.82,0,25.47,9.47,25.47,23.63s-9.84,23.64-25.65,23.64a31,31,0,0,1-10.12-1.84v12.1H305.77Zm35.77,22.34c0-3.31-1.65-8.55-10.76-8.55a37.26,37.26,0,0,0-9.29,1.47v14.35a35.13,35.13,0,0,0,9.29,1.29C339.89,104.83,341.54,99.58,341.54,96.27Z"/><path class="cls-1" d="M364.25,73.93l11.22-.74L377,76c4.23-1.74,9.48-3.4,14.07-3.4A43.89,43.89,0,0,1,402,73.84l-3.58,14.8a32.56,32.56,0,0,0-8.37-.92,46.3,46.3,0,0,0-10.2,1.56v30.26H364.25Z"/><path class="cls-1" d="M402.87,96.27c0-14.16,10.95-23.63,27.31-23.63s27.32,9.47,27.32,23.63-10.95,23.64-27.32,23.64S402.87,110.43,402.87,96.27Zm15.91,0c0,2.49.19,8.65,11.4,8.65s11.5-6.16,11.5-8.65-.28-8.64-11.5-8.64S418.78,93.79,418.78,96.27Z"/><path class="cls-1" d="M84.47,3.33a84.31,84.31,0,0,1,14.22,1.2,120.74,120.74,0,0,0-66.5,149.61A84.46,84.46,0,0,1,84.47,3.33Z"/><path class="cls-1" d="M120.79,164.08c.65-.31,1.29-.62,1.92-.94C122.08,163.46,121.44,163.78,120.79,164.08Z"/><path class="cls-1" d="M124.61,162.13c-.63.35-1.26.68-1.9,1C123.35,162.81,124,162.48,124.61,162.13Z"/><path class="cls-1" d="M125,161.93c1.23-.67,2.45-1.37,3.65-2.11C127.43,160.56,126.21,161.27,125,161.93Z"/><path class="cls-1" d="M168.94,87.8a84.13,84.13,0,0,1-19.83,54.37h-2.86a26.91,26.91,0,0,1,0-53.82h5.42V62.42h13.39A84.46,84.46,0,0,1,168.94,87.8Z"/><path class="cls-1" d="M59.35,168.47c1.32.41,2.66.79,4,1.14C62,169.27,60.67,168.89,59.35,168.47Z"/><path class="cls-1" d="M149.11,142.17h0l-.46.54Z"/><path class="cls-1" d="M145.65,28.48A86.79,86.79,0,0,0,80.79,172.19c1.22.05,2.45.08,3.68.08a84.28,84.28,0,0,0,33.17-6.76A57.89,57.89,0,0,1,146.37,57.36H180V28.45C180.17,28.28,145.65,28.48,145.65,28.48Z"/><path class="cls-1" d="M93.66,115.27a52.71,52.71,0,0,0,29.8,47.48,84.62,84.62,0,0,0,21-15.44,32.1,32.1,0,0,1,2-64.15h.1V62.56h-.1A52.71,52.71,0,0,0,93.66,115.27Z"/><path class="cls-1" d="M146.26,0A115.32,115.32,0,0,0,39.79,159.5a83.86,83.86,0,0,0,33.83,12.08,91.94,91.94,0,0,1,72.69-148.3h.16V0Z"/></g></g></svg>