<svg id="endoscopy" xmlns="http://www.w3.org/2000/svg" width="86" height="86" viewBox="0 0 86 86">
  <path id="Caminho_30" data-name="Caminho 30" d="M43.784,45.516h-.924A7.869,7.869,0,0,0,35,53.377V67.71h8.323V55.573A1.734,1.734,0,0,1,46.1,54.185l2.5,1.873a9.708,9.708,0,0,0,13.594-1.943,30.693,30.693,0,0,0,6.1-18.308V31.982A7.271,7.271,0,0,0,55.877,26.84L54.3,28.416a1.556,1.556,0,0,1-2.655-1.1V15H43.323V29.8a7.9,7.9,0,0,0,3.146,6.289l.369.276a5.086,5.086,0,0,1-3.053,9.155ZM48.5,34.141l-.368-.276A5.11,5.11,0,0,1,46.1,29.8V17.774h2.774v9.542a4.329,4.329,0,0,0,7.39,3.061L57.84,28.8a4.5,4.5,0,0,1,7.676,3.182v3.824a27.919,27.919,0,0,1-5.548,16.645,6.935,6.935,0,0,1-9.71,1.387l-2.5-1.873a4.508,4.508,0,0,0-7.213,3.606v9.363H37.774V53.377a5.092,5.092,0,0,1,5.086-5.086h.924A7.86,7.86,0,0,0,48.5,34.141Z" transform="translate(12.161 4.419)" fill="#65acda"/>
  <path id="Caminho_31" data-name="Caminho 31" d="M49,32h2.774v2.774H49Z" transform="translate(17.581 11)" fill="#65acda"/>
  <path id="Caminho_32" data-name="Caminho 32" d="M52,26h2.774v2.774H52Z" transform="translate(18.742 8.677)" fill="#65acda"/>
  <path id="Caminho_33" data-name="Caminho 33" d="M50,36h2.774v2.774H50Z" transform="translate(17.968 12.548)" fill="#65acda"/>
  <path id="Caminho_34" data-name="Caminho 34" d="M47,40h2.774v2.774H47Z" transform="translate(16.806 14.097)" fill="#65acda"/>
  <path id="Caminho_35" data-name="Caminho 35" d="M53,30h2.774v2.774H53Z" transform="translate(19.129 10.226)" fill="#65acda"/>
  <path id="Caminho_36" data-name="Caminho 36" d="M87,14.871H31.151A11.092,11.092,0,1,0,14.38,21.393,19.444,19.444,0,0,0,1,39.839v9.71a6.943,6.943,0,0,0,6.935,6.935H9.323V80.758a6.216,6.216,0,0,0,11.1,3.876,6.216,6.216,0,0,0,11.1-3.876V78.677H87Zm-64.142,40.7-4.34-4.34a7.663,7.663,0,0,1-2.26-5.457A7.753,7.753,0,0,1,19.344,39.6l.832-.624,1.53,1.913a13.171,13.171,0,0,1,2.874,8.195,13.038,13.038,0,0,1-1.723,6.486ZM21.806,20.295V19.032a4.166,4.166,0,0,1,4.161-4.161h2.289a8.338,8.338,0,0,1-6.45,5.424ZM12.1,12.1a8.323,8.323,0,0,1,16.645,0H25.968a6.943,6.943,0,0,0-6.935,6.935v1.262A8.33,8.33,0,0,1,12.1,12.1Zm3.468,72.129A3.471,3.471,0,0,1,12.1,80.758V32.9H9.323V53.71H7.935a4.166,4.166,0,0,1-4.161-4.161v-9.71A16.658,16.658,0,0,1,19.032,23.264V36.371L17.68,37.385a10.543,10.543,0,0,0-4.2,8.392A10.416,10.416,0,0,0,16.556,53.2l4.652,4.652c-.155.173-.3.351-.469.517l-1.708,1.706V80.758a3.471,3.471,0,0,1-3.468,3.468ZM28.742,32.9V80.758a3.468,3.468,0,1,1-6.935,0V61.219l.895-.895a15.784,15.784,0,0,0,4.654-11.237,15.949,15.949,0,0,0-3.483-9.927l-2.065-2.583V23.264A16.658,16.658,0,0,1,37.065,39.839v9.71A4.166,4.166,0,0,1,32.9,53.71H31.516V32.9Zm55.484,43H31.516V56.484H32.9a6.943,6.943,0,0,0,6.935-6.935v-9.71a19.444,19.444,0,0,0-13.38-18.446,11.155,11.155,0,0,0,3.555-3.748H84.226Z" transform="translate(-1 -1)" fill="#65acda"/>
  <path id="Caminho_37" data-name="Caminho 37" d="M29,15h2.774v2.774H29Z" transform="translate(9.839 4.419)" fill="#65acda"/>
  <path id="Caminho_38" data-name="Caminho 38" d="M33,15h2.774v2.774H33Z" transform="translate(11.387 4.419)" fill="#65acda"/>
  <path id="Caminho_39" data-name="Caminho 39" d="M37,15h2.774v2.774H37Z" transform="translate(12.935 4.419)" fill="#65acda"/>
  <path id="Caminho_40" data-name="Caminho 40" d="M29,19H42.871v2.774H29Z" transform="translate(9.839 5.968)" fill="#65acda"/>
  <path id="Caminho_41" data-name="Caminho 41" d="M29,23H42.871v2.774H29Z" transform="translate(9.839 7.516)" fill="#65acda"/>
  <path id="Caminho_42" data-name="Caminho 42" d="M57,51h2.774v2.774H57Z" transform="translate(20.677 18.355)" fill="#65acda"/>
  <path id="Caminho_43" data-name="Caminho 43" d="M53,51h2.774v2.774H53Z" transform="translate(19.129 18.355)" fill="#65acda"/>
  <path id="Caminho_44" data-name="Caminho 44" d="M49,51h2.774v2.774H49Z" transform="translate(17.581 18.355)" fill="#65acda"/>
  <path id="Caminho_45" data-name="Caminho 45" d="M25,51h2.774v2.774H25Z" transform="translate(8.29 18.355)" fill="#65acda"/>
  <path id="Caminho_46" data-name="Caminho 46" d="M25,47h2.774v2.774H25Z" transform="translate(8.29 16.806)" fill="#65acda"/>
  <path id="Caminho_47" data-name="Caminho 47" d="M25,43h2.774v2.774H25Z" transform="translate(8.29 15.258)" fill="#65acda"/>
</svg>
