<svg xmlns="http://www.w3.org/2000/svg" width="24.64" height="28.08" viewBox="0 0 24.64 28.08">
  <path id="map001_-_E02C" data-name="map001 - E02C" d="M4.2-21.44.78-23.02v-3.8A3.632,3.632,0,0,0,3.66-30.4,3.645,3.645,0,0,0,0-34.04,3.645,3.645,0,0,0-3.66-30.4,3.632,3.632,0,0,0-.78-26.82v3.1l-3.46-1.6-8.08,4.28V-5.96l8.12-4.28L4.24-6.38l8.08-4.26V-25.76ZM-2.1-30.4A2.1,2.1,0,0,1,0-32.48,2.1,2.1,0,0,1,2.1-30.4,2.087,2.087,0,0,1,0-28.3,2.087,2.087,0,0,1-2.1-30.4ZM.78-18.54V-21.3l2.66,1.24v11.6l-6.88-3.16V-23.24L-.78-22v3.46Zm9.98,6.96L5-8.54V-20.1l5.76-3.06ZM-10.76-20.1-5-23.16v11.58l-5.76,3.04Z" transform="translate(12.32 34.04)" fill="#65acda"/>
</svg>
